<region> lovel=1 hivel=11 amp_velcurve_11=1 sample=../samples/cymbals/cy15crash/stx/bel/cy15crash_stx_bel_001.wav
<region> lovel=12 hivel=22 amp_velcurve_22=1 sample=../samples/cymbals/cy15crash/stx/bel/cy15crash_stx_bel_002.wav
<region> lovel=23 hivel=33 amp_velcurve_33=1 sample=../samples/cymbals/cy15crash/stx/bel/cy15crash_stx_bel_003.wav
<region> lovel=34 hivel=44 amp_velcurve_44=1 sample=../samples/cymbals/cy15crash/stx/bel/cy15crash_stx_bel_004.wav
<region> lovel=45 hivel=55 amp_velcurve_55=1 sample=../samples/cymbals/cy15crash/stx/bel/cy15crash_stx_bel_005.wav
<region> lovel=56 hivel=67 amp_velcurve_67=1 sample=../samples/cymbals/cy15crash/stx/bel/cy15crash_stx_bel_006.wav
<region> lovel=68 hivel=79 amp_velcurve_79=1 sample=../samples/cymbals/cy15crash/stx/bel/cy15crash_stx_bel_007.wav
<region> lovel=80 hivel=91 amp_velcurve_91=1 sample=../samples/cymbals/cy15crash/stx/bel/cy15crash_stx_bel_008.wav
<region> lovel=92 hivel=103 amp_velcurve_103=1 sample=../samples/cymbals/cy15crash/stx/bel/cy15crash_stx_bel_009.wav
<region> lovel=104 hivel=115 amp_velcurve_115=1 sample=../samples/cymbals/cy15crash/stx/bel/cy15crash_stx_bel_010.wav
<region> lovel=116 hivel=127 amp_velcurve_127=1 sample=../samples/cymbals/cy15crash/stx/bel/cy15crash_stx_bel_011.wav
